<svg width="20" height="20" viewBox="0 0 20 20" fill="none" xmlns="http://www.w3.org/2000/svg">
<path fill="#fff" d="M14.0346 6.42856H5.96539L9.99999 9.88681L14.0346 6.42856Z"/>
<path fill="#fff" d="M10 10.7143C9.91473 10.7143 9.83225 10.6838 9.76755 10.6282L5.35715 6.84781V13.5714H14.6429V6.84781L10.2325 10.6282C10.1678 10.6838 10.0853 10.7143 10 10.7143Z"/>
<path fill="#fff" d="M10 0C4.47719 0 0 4.47719 0 10C0 15.5228 4.47719 20 10 20C15.5228 20 20 15.5228 20 10C19.9937 4.47981 15.5202 0.0062779 10 0ZM15.3571 13.9286C15.3571 14.1258 15.1972 14.2857 15 14.2857H5C4.80277 14.2857 4.64286 14.1258 4.64286 13.9286V6.07143C4.64286 5.8742 4.80277 5.71429 5 5.71429H15C15.1972 5.71429 15.3571 5.8742 15.3571 6.07143V13.9286Z"/>
</svg>
