<svg width="512" height="512" fill="none" xmlns="http://www.w3.org/2000/svg"><path d="M256 512c141.385 0 256-114.615 256-256S397.385 0 256 0 0 114.615 0 256s114.615 256 256 256z" fill="#212121"/><path d="M196 76h176c4.4 0 8 3.6 8 8v328c0 4.4-3.6 8-8 8H124c-4.4 0-8-3.6-8-8V160l80-84z" fill="#F5F5F5"/><path d="M188 160c4.4 0 8-3.6 8-8V76l-80 84h72z" fill="#E6E6E6"/><path d="M428 368c0 8.8-5.236 16-11.636 16H311.636c-6.4 0-11.636-7.2-11.636-16v-64c0-8.8 5.236-16 11.636-16h104.728c6.4 0 11.636 7.2 11.636 16v64z" fill="#878787"/><path d="M362.903 342.789c-.141 3.068-.968 5.782-2.482 8.144-1.514 2.341-3.643 4.157-6.388 5.449-2.724 1.292-5.843 1.937-9.354 1.937-5.793 0-10.354-1.887-13.684-5.661-3.33-3.774-4.995-9.102-4.995-15.984v-2.18c0-4.319.747-8.093 2.24-11.322 1.514-3.249 3.684-5.752 6.509-7.508 2.826-1.776 6.095-2.664 9.809-2.664 5.348 0 9.647 1.413 12.896 4.238 3.249 2.806 5.096 6.681 5.54 11.625h-10.596c-.08-2.684-.756-4.611-2.028-5.782-1.271-1.171-3.209-1.756-5.812-1.756-2.644 0-4.582.989-5.813 2.967-1.231 1.978-1.877 5.136-1.937 9.476v3.118c0 4.702.585 8.063 1.755 10.081 1.191 2.018 3.23 3.027 6.116 3.027 2.442 0 4.309-.575 5.6-1.725 1.292-1.151 1.978-2.977 2.059-5.48h10.565zM385.033 345.726l8.779-32.09h11.868l-14.834 44.078h-11.625l-14.713-44.078h11.776l8.749 32.09z" fill="#fff"/></svg>