<svg width="68" height="68" fill="none" xmlns="http://www.w3.org/2000/svg">
  <style type="text/css">
    @media (prefers-color-scheme: dark) {
      path {
        fill: #68EEB6;
      }
    }
  </style>
  <path d="M53.833 62.362c2.218-1.544 3.45-3.808 4.066-6.895h-.062l1.54-9.416c.308-1.904 1.108-3.242 2.464-3.86 1.416-.668 3.08-.874 5.112-.668L68 35.451c-2.156-.308-3.696-.926-4.62-1.955-1.047-.926-1.416-2.315-1.047-4.116v-.257l1.602-9.159c.37-2.933 0-5.351-1.479-7.203-1.6-1.956-4.804-4.014-9.855-6.072l-1.231 6.689c2.34.926 3.818 1.75 4.434 2.779.616.926.924 2.16.616 3.704l-1.601 9.416c-.616 4.065 1.416 6.74 5.728 8.027v.36c-2.217 0-4.127.514-5.543 1.544-1.479.977-2.341 2.47-2.71 4.373v.309l-1.848 9.519c-.247 1.646-.863 2.83-1.848 3.601-.986.875-2.71 1.39-5.297 1.647l-1.355 7.306c5.728-.823 9.608-2.058 11.887-3.601zM12.75 38.127c2.525 1.39 3.573 3.499 2.957 6.277v.052l-2.772 13.532c-.616 3.139-.185 5.506 1.232 7.05 1.232 1.543 3.572 2.418 6.775 2.778 3.08.411 7.391.102 12.319-.618l1.416-7.718c-3.08.103-5.173-.051-6.159-.926-.985-.875-1.355-2.212-.985-4.116l2.279-11.68v-.515c.862-4.63-2.403-7.718-10.656-9.776l.123-.514c8.5.205 12.873-2.11 13.92-6.998l2.095-11.32c.43-1.8 1.231-2.83 2.463-3.344 1.232-.463 3.265-.206 6.037.669l1.355-7.204C40.899 1.956 37.203.823 34.308.31c-3.08-.566-5.543-.36-7.391.669-1.725 1.029-2.957 3.035-3.573 5.917l-2.71 13.069v.36c-.493 2.573-2.094 4.168-5.174 4.837-3.08.514-7.391.514-13.243-.515L0 35.143c5.975.566 10.101 1.543 12.75 2.984z" fill="#8368EE"/>
</svg>
