<svg width="362" height="376" fill="none" xmlns="http://www.w3.org/2000/svg"><path fill="#07060D" d="M0 0h362v376H0z"/><path d="M51.565 74.36c-8.04-8.35-22.31-10.82-46.332-4.25 24.355-8.695 38.435-6.076 46.332 4.25zM362 239.237v2.52c-19.075-2.668-36.723-12.402-55.132-20.752 35.391 20.011 45.713 30.732 55.132 31.226v47.531c-65.027 24.408-155.979-20.949-116.829-39.675 16.934-8.103 93.092 20.208 62.125-20.949 5.232 9.882 6.184 20.258-11.797 17.293 6.088-1.038 13.224-3.459 7.944-11.759-5.281-8.301.237 13.637-37.057 2.371-29.492-8.893-72.305 15.317-44.239-13.834-60.888 45.95 60.888 100.843 131.1 80.141-8.419 2.322-21.834 3.063-37.008 2.075 15.793-.247 31.11-3.854 45.713-10.03v15.119c-52.896 36.019-102.225 44.32-191.893 8.548 77.252 49.903-12.035 26.532-14.033 25.939 7.088 2.026 42.337 7.214 39.007.791-3.33-6.423-29.683-4.299-49.948-12.55 8.373-.889 23.167 4.892 4.757-11.611 35.82 30.732 8.039-2.717-11.607-17.787a105.34 105.34 0 01-7.896-7.56c2.569 2.174 4.709 2.668 6.136.939-5.28-9.486-9.894-18.429-13.937-26.878 1.141 1.581 2.331 3.211 3.615 4.792C52.183 126.536 237.845 63.935 246.17 9.042c-.666 2.174-1.713 4.348-3.188 6.472 2.284-6.324 3.521-10.919 2.807-15.465h11.892c.238.643.523 1.334.714 2.026A27.916 27.916 0 00260.012.05h16.078c.048 9.536-6.612 20.85-25.639 35.328C265.054 25.742 277.327 14.032 280.086 0h7.802c-19.266 20.752-46.618 51.632-62.554 57.512-52.992 25.84-86.385 80.684-94.329 134.49 6.755-23.321 19.694-47.333 37.294-70.21-25.877 36.711-41.1 79.054-37.722 115.37 1.522 10.771 4.281 21.097 8.324 30.682 13.129 27.076 41.671 47.136 90.667 52.917-59.604-33.944-63.79-119.371 13.034-129.154 24.498-4.2 47.426 3.113 69.974 11.314-28.922-7.559-68.309-19.961-91.475.149 25.354-3.113 51.517-.198 75.92 8.3-27.067-5.632-63.838-19.813-85.291 5.682 5.66-3.607 13.271-10.524 28.493-10.524-22.357 4.447-20.93 10.87.381 9.487-36.771 2.47-72.685 31.522-37.532 71.346 35.153 39.823 70.925 40.12 58.605 48.47-21.929 14.971-92.094-18.133-114.023-50.842-.713-.79-1.379-1.581-2.093-2.371 28.637 45.406 105.175 77.818 150.604 54.744 19.217-9.782-148.701-52.274-89.383-107.315 16.031-14.872 57.892-15.02 79.108 4.051-13.795-9.289-63.267-14.427-48.045.099 11.417 10.87 62.125 17.244 54.276 2.718-4.519-6.176-10.322-10.87-16.839-14.28.095.05.19.05.285.099-55.227-32.313 7.278-13.636 64.837 11.117 7.468 4.002 14.699 5.583 21.596 5.386zm-212.538 47.679s20.597 24.902 54.609 37.205c26.734 9.635 50.28 7.955 50.423 6.917.143-1.136-28.256-.939-61.84-16.305-27.542-12.599-43.192-27.817-43.192-27.817zm68.642-230.392c9.514-6.72 19.027-13.39 28.541-20.11-7.944 3.31-22.69 13.686-28.541 20.11zm-89.192 188.543c-.381-4.941-3.187-20.801-2.807-25.94-3.329-51.039 19.076-107.167 68.547-142.445-61.173 39.478-82.389 96.248-65.74 168.385zm-5.566-80.289c6.184-12.748 12.654-26.137 19.218-39.675-6.564 8.103-19.646 34.981-19.218 39.675zm64.932 165.47c-28.684-14.329-54.847-36.316-68.357-66.9 5.804 26.137 44.002 65.368 68.357 66.9zm121.206-95.952c3.9 6.028 6.374 8.301 12.035 18.874 20.121 37.6-91.142-8.35-79.107 23.123 7.325 19.171 58.7 28.559 73.922 28.559-41.861-7.906-69.641-19.369-66.74-32.017 4.424-18.874 135.715 46.839 59.89-38.539zM96.089 222.339c-.285-8.844-1.094-27.768.476-36.562-2.664 7.114-1.57 26.433-.476 36.562zm34.25 83.896a99.239 99.239 0 01-5.185-5.83c1.855 2.52 3.615 4.496 5.185 5.83zm-5.185-5.781c-11.226-15.267-25.497-42.64-28.589-70.704.856 28.509 10.56 49.014 28.589 70.704zm75.92-293.487c2.426 4.15 3.52 8.695 3.948 13.044.143-4.842-.999-9.339-3.948-13.044zM195.128 0h-4.804c4.899 1.68 8.372 4.052 10.703 6.967A25.552 25.552 0 00195.128 0zm-76.681 273.724c-10.941-23.024-12.558-31.671-15.698-48.915.618 20.456 2.378 27.669 15.698 48.915zM103.7 316.71c17.125 20.257 58.035 32.115 36.153 8.399 6.184 16.305-22.833 3.953-36.153-8.399zm65.265-302.925c-.238-4.793-1.284-9.388-3.282-13.785H155.36c3.092 1.383 5.994 3.162 8.705 5.484-4.756-1.828-9.513-3.606-14.461-5.484h-5.089c11.797 3.014 21.311 7.609 24.45 13.785zM362 0v19.418c-31.681-13.588-58.51-2.224-73.732 11.215-15.222 13.44-36.533 16.009-53.134 26.483 17.505-12.796 41.718-18.083 56.178-33.4C305.773 8.4 300.303 6.176 303.205 0H362zm-23.975 6.324c-10.227.149-18.98 4.299-27.542 9.14a290.785 290.785 0 0127.542-9.14zm-24.117 304.16c-11.227-.741-23.404-2.421-35.201-5.089 11.892 3.706 23.642 5.287 35.201 5.089zm-32.823-.099c-6.85-2.124-13.7-4.891-20.645-8.449-70.164-40.564-8.8-50.94 20.74-45.752-17.648-7.658-69.498-17.095-54.799 21.839-3.235-4.2-9.942-10.228-8.515-21.592-9.514 27.175 31.633 46.79 63.219 53.954zM226.904 63.737c-25.592 16.157-40.529 32.412-58.557 58.006 18.028-23.42 32.632-39.033 58.557-58.006zM362 222.34v-4.15c-6.945-1.186-27.828-7.51-34.725-9.684 9.561 3.903 32.537 12.352 34.725 13.834zM173.294 0H189.8c32.442 17.886-10.132 47.877-17.22 68.629 12.321-6.374 31.776-30.19 32.442-48.57 1.951 20.555-11.131 37.799 28.875.297 6.85-4.693 8.134-12.352 5.518-20.356h2.426c4.281 42.54-78.109 64.182-86.386 85.131 20.217-4.644-13.462 11.315-8.467 14.625 21.596-14.724 38.293-35.772 60.318-49.853C155.931 87.256 99.895 154.748 101.94 220.462c-14.984-82.019 84.388-170.856 79.393-203.564C178.859.988 175.577 4.2 173.294 0zm-9.657 67.986c-2.759-.74-7.896 4.25-7.991 9.536 3.044-3.607 5.518-6.571 7.991-9.536zm26.591-48.815c-.618-1.977-1.189-3.755-1.902-6.078-2.331 4.2-1.76 6.078 1.902 6.078zm5.138 2.075c-1.427-2.52-.952-8.3-3.615-7.263 1.046 2.223-2.522 6.027 3.615 7.263zM178.764 1.334c4.614 16.256 6.898-.099 17.22 10.672-.951-5.978-8.99-11.463-17.22-10.672zM75.159 295.958c12.415 24.803 20.597 39.774 57.558 48.42-22.547-10.227-40.053-23.37-57.558-48.42zM0 299.071v4.199c21.358 24.507 43.811 52.769 68.594 64.034 4.662 3.063 9.372 5.979 14.129 8.696h6.754c-16.696-8.35-31.728-18.38-44.334-29.991C30.159 335.534 15.27 316.611 0 299.071zm0-234.89v-3.754c112.263-46.593 71.353 86.811 66.12 119.865-5.232 33.055 7.136 96.891 17.126 81.426 9.99-15.465-24.736-36.909 42.003-171.152-29.112 42.59-47.236 117.445-54.704 117.642-7.468.198-3.473-25.396.808-35.278C66.121 271.254 144.8-13.736 4.281 48.47 3.14 49.112 1.712 49.755 0 50.446V38.44C41.48 16.107 65.645 2.668 100.133 2.668c34.487 0 61.839 7.56 68.594 18.183-6.802 65.268-140.09 164.679-49.472 285.631 19.218 22.086 10.133 23.568-10.322 7.263s-42.194-54.399-50.756-100.497c.618 27.422 4.281 54.547 15.65 77.176-12.035-17.194-17.22-31.523-20.407-64.033-3.187-32.511 6.422-79.697 7.373-116.358 1.522 11.512 1.475 18.677 1.047 28.805C83.53 61.267 41.337 47.877 0 64.182zm50.851-45.06c-7.563 1.532-22.5 6.77-28.113 11.512 9.371-3.854 18.742-7.658 28.113-11.512zm98.23-.79c6.993 6.917 4.805 18.528.904 28.113.523-.79 1.094-1.63 1.713-2.47 6.469-9.684 4.328-19.615-2.617-25.643zm-.475 6.126c.57 8.103-.286 15.218-2.807 23.37 6.469-9.98 7.468-18.28 2.807-23.37zm-44.763-13.686h22.643c-6.422-.642-16.126-.642-22.643 0zm43.05 15.81c-7.468-18.33-37.532-14.871-53.658-12.252 17.696-.05 41.576-4.398 53.658 12.253zm-2.759 20.407c-5.137 11.067-15.698 17.44-21.787 27.62 6.565-.396 21.074-19.962 21.787-27.62zm206.116 83.797c-9.513-10.623-9.989-12.55-4.994-19.467-9.799 5.039-1.57 15.514 4.994 19.467zM329.082 16.552c10.941-.593 22.025 2.47 32.918 5.089v-.445c-10.703-4.348-21.311-8.794-32.918-4.644zM362 201.489v-5.929c-12.035-3.805-23.785-7.214-35.629-8.647 11.226 3.755 23.451 12.303 35.629 14.576zM0 319.526C19.028 339.191 38.15 358.954 58.462 376h9.704C44.286 354.754 22.31 328.716 0 309.15v10.376zm0 3.557v23.321C13.7 353.47 28.732 363.253 45.143 376h7.373C34.345 363.994 17.125 342.55 0 323.083zm362-186.962v-28.904a133.21 133.21 0 01-9.847 5.336c-3.044 9.091 1.808 17.639 9.847 23.568zm-23.689-24.853c-10.989 5.584-2.95 11.266 2.235 17.293-4.519-9.19-9.513-10.128-2.235-17.293zm-27.876-67.64c24.451-7.066 35.82-.297 51.565 8.103v-1.186c-16.173-8.202-24.26-16.947-51.565-6.917zM362 88.837v-.05c-.19.1-.381.198-.571.297.19-.099.381-.198.571-.247zM358.86 376c1.047-.593 2.093-1.136 3.14-1.729v-2.718c-2.093 1.532-4.234 2.965-6.374 4.447h3.234zM.618 0C.476.05.333.099.238.148L.666 0H.618zM0 .198c.095 0 .143-.05.238-.05-.095 0-.143.05-.238.05zM15.793 0C9.894 2.421 4.614 4.348 0 5.83v15.91C20.264 13.242 41.1 6.028 61.079 0H15.793zm129.911 376h7.991c-11.226-4.249-41.147-21.69-44.905-23.864 14.128 10.425 27.067 18.577 36.914 23.864zM0 87.355v-8.4C102.511 51.78 4.281 244.92 83.15 331.68 10.466 284.1 41.386 181.33 34.298 111.12 31.967 87.947 17.125 85.576 0 87.354zm27.114-2.866c24.26 27.669 8.325 85.477 9.8 127.03-.143-29.794 30.634-117.643-9.8-127.03zM283.321 376c25.925-7.016 50.471-18.182 71.544-33.746 2.426-2.471 4.804-4.892 7.087-7.214v-9.387c-33.536 21.641-68.214 40.021-102.558 50.347h23.927zM85.862 334.497c5.566 5.632 12.225 10.623 20.217 14.822l-20.217-14.822zm212.396-138.839c-28.304-20.554 42.241 18.232 63.742 20.801v-8.646c-34.345-10.03-122.966-38.638-63.742-12.155zm-261.392 88.59c5.946 15.169 12.13 38.885 49.71 59.636-29.017-24.704-39.007-40.515-49.71-59.636zm-25.45-55.98c1.428 20.752 12.13 34.734 21.882 46.938C9.133 200.5 57.368 92.493 0 91.356v6.621c4.614-.691 5.233-6.077 14.033-1.58 22.262 12.747 14.223 51.681 8.895 70.654-1.236-17.837 8.087-43.48-8.182-55.684-15.697-5.287 2.902 20.604-.142 28.558-3.33-10.622-8.372-17.54-14.604-21.591v12.352c17.6 17.342 13.415 65.713 14.033 86.465C6.898 202.378 4.09 185.381 0 169.175v78.165c10.465 19.714 19.17 40.91 25.687 56.968C16.935 292.895 8.61 278.961 0 265.275v24.161c22.12 22.036 44.62 50.99 69.023 70.21a253.474 253.474 0 01-35.392-26.681c15.222 14.724 32.11 26.928 50.09 36.81a86.793 86.793 0 007.611 4.002c1.475.741 2.902 1.432 4.377 2.174h46.665C43.288 352.284 8.087 255.443 11.417 228.268zM349.68 376a186.586 186.586 0 0012.32-6.67v-26.335C339.31 357.62 317.428 368.44 296.402 376h53.278zm-24.879-154.007c13.938 7.659 25.782 13.686 37.199 13.538v-12.599c-1.189-.049-4.614-.939-11.036-2.965 24.403 24.062-9.228 11.117-26.163 2.026zM0 376h30.254C20.074 369.923 9.894 363.747 0 358.312V376zm165.064-207.121c0-.05.048-.099.048-.148 0 .049 0 .098-.048.148zm.571-1.186c-.19.346-.333.692-.523 1.038.19-.346.333-.692.523-1.038zm.19-.346c-.047.099-.095.148-.142.247.047-.099.095-.148.142-.247zm-.142.247c0 .05-.048.05-.048.099 0-.049.048-.049.048-.099zm3.663 2.866c-29.017 29.645-15.698 101.782-6.565 78.164 17.838-45.999 59.842-87.552 112.643-63.836-27.114-16.304 22.786-6.126 53.135-.642-33.393-7.955-68.071-18.775-101.084-8.103 10.322-4.941 16.411-7.016 27.97-7.065-27.066-2.866-49.424 3.458-72.495 21.739-23.071 18.282 10.18-42.491 5.423-45.455-4.424-2.767-16.649 10.277-22.548 22.085 7.659-15.069 18.315-12.006 3.521 3.113zm-4.757-.494c.142-.395.333-.741.475-1.087-.142.346-.333.741-.475 1.087zm100.846-.988c28.874 3.063 46.38 11.067 74.208 14.328-28.352-6.176-46.618-14.526-74.208-14.328zm59.366 53.015c-.761-.395-1.475-.84-2.236-1.235.666.445 1.427.84 2.236 1.235zM46.618 7.213l13.271-5.039c-5.185-1.779-9.276 2.57-13.271 5.04zM79.06 0h-7.85c-32.06 13.884-94.947 38.687 7.85 0zm126.866 352.531c21.882 10.425-.38 13.143-12.51 12.797 18.218 2.915 39.434-4.2 12.51-12.797zm23.452 5.287c13.842 10.079-4.805 11.067-13.462 12.055 9.609-.642 36.533-2.025 13.462-12.055zm26.02-.593c30.492 13.389-1.475 15.81-18.504 18.775h6.231c19.694-2.273 49.091-9.289 12.273-18.775zM362 188.494v-1.877c-5.042-.05-10.18-.396-15.412-.989 5.232 1.087 10.37 2.076 15.412 2.866zm-210.731 89.677c6.184 10.87 18.077 19.269 23.309 20.257-6.659-3.458-16.173-11.364-23.309-20.257zm54.229 33.104c-60.317-64.133-2.854-122.534 38.055-129.945-28.065.988-86.575 45.456-72.305 88.441-9.989-1.136-21.406-18.281-24.545-35.327 2.188 25.446 19.313 52.62 58.795 76.831zm-36.152-23.717c-19.028-17.787-27.4-44.665-27.495-62.452-2.046 18.528 2.283 42.689 27.495 62.452zM362 191.607v-1.334a162.52 162.52 0 01-10.56-1.384c3.805.89 7.325 1.779 10.56 2.718zm0-166.063v9.833c-12.178-4.546-12.844-9.685-43.573-4.694-30.73 4.99-116.497 50.89-135.144 86.366C214.536 77.572 338.786 13.933 362 60.13v22.926c-31.348 21.147-126.153 30.04-115.973 48.569 4.519 6.028 18.457 12.204 31.776 2.816-26.163-5.929 20.692-23.617 27.828-26.73-58.32 27.521-8.325 22.777 17.458 25.939 25.782 3.163 28.018 9.042 38.911 13.291v1.236c-23.356-6.572-27.114-14.181-71.829-12.451 50.423 3.162 27.114 19.961 71.829 21.097v22.135c-48.045.445-61.84-13.982-97.612-13.982-35.771 0-57.177 2.964-71.591 12.055-25.354 17.145 11.274-38.193 14.699-46.394 22.31-50.644-58.89 33.647-65.645 94.469-.238-52.027 44.144-117.395 95.518-120.36 16.174-.988-81.818 81.031-32.822 65.714-39.958-2.471 93.711-76.09 53.324-75.398-68.927 1.186-100.323 56.03-119.588 105.34C131.576 121.891 285.89 11.957 362 25.544zM279.373 137.85c4.376 2.866 13.509 1.631 20.454 2.273-6.802-1.235-13.509-4.002-20.454-2.273zm-39.387 24.803c-15.127-1.037-47.332 9.289-23.071-14.427-29.493 25.693 6.088 16.354 23.071 14.427z" fill="#1B1732"/></svg>
