<svg width="190" height="80" fill="#fff" xmlns="http://www.w3.org/2000/svg"><path d="M53.833 65.362c2.218-1.544 3.45-3.808 4.066-6.895h-.062l1.54-9.416c.308-1.904 1.108-3.242 2.464-3.86 1.416-.668 3.08-.874 5.112-.668L68 38.451c-2.156-.308-3.696-.926-4.62-1.955-1.047-.926-1.416-2.315-1.047-4.116v-.257l1.602-9.159c.37-2.933 0-5.351-1.479-7.203-1.6-1.956-4.804-4.014-9.855-6.072l-1.231 6.689c2.34.926 3.818 1.75 4.434 2.779.616.926.924 2.16.616 3.704l-1.601 9.416c-.616 4.065 1.416 6.74 5.728 8.027v.36c-2.217 0-4.127.514-5.543 1.544-1.479.977-2.341 2.47-2.71 4.373v.309l-1.848 9.519c-.247 1.646-.863 2.83-1.848 3.601-.986.875-2.71 1.39-5.297 1.647l-1.355 7.306c5.728-.823 9.608-2.058 11.887-3.601zM12.75 41.127c2.525 1.39 3.573 3.499 2.957 6.277v.052l-2.772 13.532c-.616 3.139-.185 5.506 1.232 7.05 1.232 1.543 3.572 2.418 6.775 2.778 3.08.411 7.391.102 12.319-.618l1.416-7.718c-3.08.103-5.173-.051-6.159-.926-.985-.875-1.355-2.212-.985-4.116l2.279-11.68v-.515c.862-4.63-2.403-7.718-10.656-9.776l.123-.514c8.5.205 12.873-2.11 13.92-6.998l2.095-11.32c.43-1.8 1.231-2.83 2.463-3.344 1.232-.463 3.265-.206 6.037.669l1.355-7.204c-4.25-1.8-7.946-2.933-10.841-3.447-3.08-.566-5.543-.36-7.391.669-1.725 1.029-2.957 3.035-3.573 5.917l-2.71 13.069v.36c-.493 2.573-2.094 4.168-5.174 4.837-3.08.514-7.391.514-13.243-.515L0 38.143c5.975.566 10.101 1.543 12.75 2.984zM98.68 22.32c1.76.373 3.173 1.067 4.24 2.08 1.093 1.013 1.64 2.52 1.64 4.52 0 5.387-3.72 8.08-11.16 8.08h-8.2V9.28h7.24c3.547 0 6.28.587 8.2 1.76 1.92 1.147 2.88 2.92 2.88 5.32 0 1.6-.453 2.907-1.36 3.92-.907.987-2.067 1.667-3.48 2.04zM91.6 13.8v6.6h1.76c2.453 0 3.68-1.133 3.68-3.4 0-1.093-.32-1.893-.96-2.4-.64-.533-1.653-.8-3.04-.8H91.6zm1.84 18.56c1.493 0 2.627-.28 3.4-.84.773-.56 1.16-1.533 1.16-2.92 0-2.613-1.413-3.92-4.24-3.92H91.6v7.68h1.84zm21.516-4.936h-1.872V37h-5.76V12.052h7.308c3.264 0 5.7.636 7.308 1.908 1.608 1.248 2.412 3.132 2.412 5.652 0 3.192-1.404 5.436-4.212 6.732L125.792 37h-6.3l-4.536-9.576zm-1.872-3.996h1.764c1.248 0 2.16-.3 2.736-.9.576-.624.864-1.596.864-2.916 0-1.2-.312-2.076-.936-2.628-.624-.576-1.608-.864-2.952-.864h-1.476v7.308zm31.706 5.868c0 1.584-.336 3.012-1.008 4.284-.672 1.248-1.68 2.232-3.024 2.952-1.344.72-2.988 1.08-4.932 1.08-2.928 0-5.16-.756-6.696-2.268-1.512-1.512-2.268-3.528-2.268-6.048V12.052h5.76V29.08c0 1.44.252 2.508.756 3.204.504.672 1.32 1.008 2.448 1.008s1.932-.336 2.412-1.008c.504-.696.756-1.764.756-3.204V12.052h5.796v17.244zM165.955 37h-7.2l-6.12-19.584c.048.288.072.528.072.72.216 1.728.384 3.3.504 4.716.12 1.392.18 3.012.18 4.86V37h-5.04V12.052h7.128l6.228 19.62a55.791 55.791 0 0 1-.792-9.324V12.052h5.04V37zm13.307-25.56c3.288 0 5.82 1.116 7.596 3.348 1.776 2.208 2.664 5.448 2.664 9.72 0 4.224-.9 7.464-2.7 9.72-1.776 2.256-4.296 3.384-7.56 3.384-3.264 0-5.796-1.116-7.596-3.348-1.776-2.232-2.664-5.484-2.664-9.756 0-4.2.888-7.428 2.664-9.684 1.8-2.256 4.332-3.384 7.596-3.384zm0 4.212c-1.464 0-2.544.684-3.24 2.052-.672 1.368-1.008 3.636-1.008 6.804 0 3.216.348 5.508 1.044 6.876.696 1.344 1.764 2.016 3.204 2.016 1.464 0 2.532-.672 3.204-2.016.696-1.368 1.044-3.66 1.044-6.876 0-3.168-.348-5.436-1.044-6.804-.672-1.368-1.74-2.052-3.204-2.052zM98.56 68l-1.24-6.04h-7.04L89.04 68h-6.48l7.48-27.72h7.68L105.16 68h-6.6zm-7.32-10.64h5.12l-2.56-12.4-2.56 12.4zm21.219-14.308v20.376h8.676L120.523 68h-13.824V43.052h5.76zm25.302 0L131.677 68h-7.272l-6.336-24.948h5.904l4.176 20.412 3.852-20.412h5.76zm15.71 0l-.612 4.104h-7.74v6.156h6.768v4.032h-6.768v6.48h8.28V68h-14.04V43.052h14.112zm10.039-.612c1.68 0 3.156.276 4.428.828 1.296.528 2.472 1.32 3.528 2.376l-2.628 3.024c-1.56-1.344-3.156-2.016-4.788-2.016-.912 0-1.632.228-2.16.684-.528.456-.792 1.08-.792 1.872 0 .528.12.972.36 1.332.24.36.66.708 1.26 1.044.6.336 1.488.72 2.664 1.152 1.536.576 2.772 1.2 3.708 1.872.96.648 1.692 1.464 2.196 2.448.504.984.756 2.208.756 3.672 0 1.536-.372 2.904-1.116 4.104-.72 1.176-1.776 2.1-3.168 2.772-1.368.672-2.976 1.008-4.824 1.008-3.48 0-6.372-1.176-8.676-3.528l2.808-3.132c.888.768 1.776 1.356 2.664 1.764a6.974 6.974 0 0 0 2.88.612c1.104 0 1.956-.288 2.556-.864.6-.576.9-1.344.9-2.304 0-.912-.276-1.644-.828-2.196-.552-.552-1.596-1.104-3.132-1.656-2.496-.936-4.272-1.992-5.328-3.168-1.056-1.176-1.584-2.676-1.584-4.5 0-1.416.36-2.664 1.08-3.744.72-1.104 1.704-1.956 2.952-2.556 1.272-.6 2.7-.9 4.284-.9z"/></svg>